<?xml version="1.0" encoding="utf-8"?>
<!-- Generator: Adobe Illustrator 17.1.0, SVG Export Plug-In . SVG Version: 6.00 Build 0)  -->
<!DOCTYPE svg PUBLIC "-//W3C//DTD SVG 1.1//EN" "http://www.w3.org/Graphics/SVG/1.1/DTD/svg11.dtd">
<svg version="1.1" id="Calque_1" xmlns="http://www.w3.org/2000/svg" xmlns:xlink="http://www.w3.org/1999/xlink" x="0px" y="0px"
	 viewBox="0 0 760.4 138.5" enable-background="new 0 0 760.4 138.5" xml:space="preserve">
<g>
	<path fill="#ffffff" d="M167.8,56.8c-2.7,1.4-8.2,2.7-15.3,2.7c-16.3,0-28.5-10.3-28.5-29.2C124,12.3,136.3,0,154.2,0
		c7.2,0,11.7,1.5,13.7,2.6l-1.8,6.1c-2.8-1.4-6.9-2.4-11.7-2.4c-13.5,0-22.5,8.7-22.5,23.8c0,14.1,8.1,23.2,22.2,23.2
		c4.5,0,9.2-0.9,12.2-2.4L167.8,56.8z"/>
	<path fill="#ffffff" d="M177.1,0.9h7.5v51.5h24.7v6.3h-32.1V0.9z"/>
	<path fill="#ffffff" d="M247.5,31.6h-22.5v20.8h25v6.3h-32.5V0.9h31.2v6.3h-23.7v18.3h22.5V31.6z"/>
	<path fill="#ffffff" d="M269.1,40.5l-6,18.2h-7.7L275,0.9h9l19.7,57.8h-8l-6.2-18.2H269.1z M288.1,34.7l-5.7-16.6
		c-1.3-3.8-2.1-7.2-3-10.5h-0.2c-0.9,3.4-1.8,6.9-2.9,10.5l-5.7,16.7H288.1z"/>
	<path fill="#ffffff" d="M312.2,58.7V0.9h8.1l18.5,29.2c4.3,6.8,7.6,12.9,10.4,18.8l0.2-0.1c-0.7-7.7-0.9-14.7-0.9-23.7V0.9h7v57.8
		h-7.5l-18.3-29.3c-4-6.4-7.9-13-10.8-19.3l-0.3,0.1c0.4,7.3,0.6,14.2,0.6,23.8v24.7H312.2z"/>
	<path fill="#ffffff" d="M416.7,31.6h-22.5v20.8h25v6.3h-32.5V0.9H418v6.3h-23.7v18.3h22.5V31.6z"/>
	<path fill="#ffffff" d="M460.6,58.7l-7.4-12.8c-3-4.9-4.9-8.1-6.7-11.4h-0.2c-1.6,3.3-3.3,6.4-6.3,11.5l-7,12.7h-8.6l17.7-29.2
		l-17-28.5h8.7l7.6,13.5c2.1,3.8,3.8,6.7,5.3,9.8h0.3c1.6-3.4,3.1-6.1,5.2-9.8l7.9-13.5h8.6l-17.6,28.1l18,29.7H460.6z"/>
	<path fill="#ffffff" d="M477.9,1.6c3.6-0.6,8.3-1.1,14.3-1.1c7.4,0,12.8,1.7,16.2,4.8c3.2,2.7,5.1,6.9,5.1,12.1
		c0,5.2-1.5,9.3-4.5,12.3c-3.9,4.2-10.4,6.3-17.7,6.3c-2.2,0-4.3-0.1-6-0.5v23.1h-7.5V1.6z M485.4,29.5c1.6,0.4,3.7,0.6,6.2,0.6
		c9,0,14.5-4.4,14.5-12.3c0-7.6-5.4-11.3-13.6-11.3c-3.3,0-5.7,0.3-7,0.6V29.5z"/>
	<path fill="#ffffff" d="M523.5,1.7c3.8-0.8,9.2-1.2,14.3-1.2c8,0,13.1,1.5,16.7,4.7c2.9,2.6,4.5,6.5,4.5,11
		c0,7.6-4.8,12.7-10.9,14.7v0.3c4.5,1.5,7.1,5.7,8.5,11.7c1.9,8.1,3.3,13.6,4.5,15.9h-7.7c-0.9-1.6-2.2-6.6-3.9-13.8
		c-1.7-8-4.8-11-11.6-11.2h-7v25h-7.5V1.7z M531,28h7.6c8,0,13-4.4,13-11c0-7.5-5.4-10.7-13.3-10.8c-3.6,0-6.2,0.3-7.4,0.7V28z"/>
	<path fill="#ffffff" d="M599.5,31.6h-22.5v20.8h25v6.3h-32.5V0.9h31.2v6.3h-23.7v18.3h22.5V31.6z"/>
	<path fill="#ffffff" d="M610.8,49.6c3.3,2.1,8.2,3.8,13.4,3.8c7.6,0,12.1-4,12.1-9.9c0-5.4-3.1-8.5-10.9-11.5
		c-9.4-3.3-15.3-8.2-15.3-16.4c0-9,7.5-15.7,18.7-15.7c5.9,0,10.2,1.4,12.8,2.8l-2.1,6.1c-1.9-1-5.7-2.7-11-2.7
		c-7.9,0-10.9,4.7-10.9,8.7c0,5.4,3.5,8.1,11.5,11.1c9.8,3.8,14.7,8.5,14.7,17c0,8.9-6.6,16.6-20.2,16.6c-5.6,0-11.7-1.6-14.7-3.7
		L610.8,49.6z"/>
	<path fill="#ffffff" d="M653,49.6c3.3,2.1,8.2,3.8,13.4,3.8c7.6,0,12.1-4,12.1-9.9c0-5.4-3.1-8.5-10.9-11.5
		c-9.4-3.3-15.3-8.2-15.3-16.4c0-9,7.5-15.7,18.7-15.7c5.9,0,10.2,1.4,12.8,2.8l-2.1,6.1c-1.9-1-5.7-2.7-11-2.7
		c-7.9,0-10.9,4.7-10.9,8.7c0,5.4,3.5,8.1,11.5,11.1c9.8,3.8,14.7,8.5,14.7,17c0,8.9-6.6,16.6-20.2,16.6c-5.6,0-11.7-1.6-14.7-3.7
		L653,49.6z"/>
</g>
<path fill="#ffffff" d="M756.9,86.6c-1.5,0-2.8,1.3-3.9,3.7c-0.7,3.4-2.2,6.7-4.6,10c-2.4,3.3-5.5,6.5-9.2,9.4
	c-3.8,3-8,5.7-12.7,8.2c-4.7,2.5-9.5,4.5-14.4,6c-23.5,7.3-52.6,11.3-87.4,11.9c-44.3,0.8-98.7-2.5-163.1-9.8
	c-23-2.7-47.3-5.9-72.8-9.5c-25.5-3.6-52.5-7.8-80.9-12.4c-15.4-2.6-30.6-5.3-45.8-7.9c-15.2-2.7-30.4-5.2-45.8-7.7c0,0,0,0,0,0
	c0,0-51.9-7.8-64.5-9.5c-12.7-1.7-20.1-2.8-22.5-3.2c-36.4-4.4-64.4-6.4-83.9-5.9c-1.9,0.1-4,0.1-6.3,0.3c-2.3,0.1-4.4,0.3-6.3,0.5
	c-3,0.4-6.1,0.9-9.1,1.7c-3,0.8-6.6,1.8-10.8,3c-9.5,3-13.8,5.6-13,7.6c1.7,7.6,17.6,15.9,47.7,25c30.5,9.9,60.4,14.3,89.8,13.2
	c9.4-0.4,18.6-1.8,27.5-4l-3.1-1.4c-7.2,1.6-15.1,2.6-23.9,2.7c-19.5,0.4-40.8-2.4-63.9-8.3c-24.6-6.3-42.4-13.9-53.4-22.8
	c-2-1.7-2.9-3.3-3-4.5c-0.1-3.8,7.1-5.5,21.6-5.2c35.2,1,158.1,17,158.1,17s188.5,28.2,258.1,35.2c69.6,7,126.3,9.7,170.2,8.2
	c9.5-0.4,19.2-0.9,28.9-1.6c9.7-0.7,19.5-1.7,29.4-3.1c8.8-1.1,16-2.1,21.7-3.2c5.7-1.1,10.3-2,13.7-2.8
	c10.6-3.2,20.2-8.6,28.8-16.2c8.2-7.9,12.2-14.9,12-21C760.4,87.7,759.2,86.5,756.9,86.6z"/>
</svg>
